<mxfile host="app.diagrams.net" modified="2023-04-22T08:21:20.622Z" agent="Mozilla/5.0 (Macintosh; Intel Mac OS X 10_15_7) AppleWebKit/537.36 (KHTML, like Gecko) Chrome/110.0.0.0 Safari/537.36" version="21.2.1" etag="JU0t9Ayc67fojNVC_UU9" type="github">
  <diagram name="第 1 页" id="dhtbSQrQPLIDP8PD7pK_">
    <mxGraphModel>
      <root>
        <mxCell id="0" />
        <mxCell id="1" parent="0" />
      </root>
    </mxGraphModel>
  </diagram>
</mxfile>
